<?xml version="1.0" encoding="UTF-8"?>
<svg id="Layer_1" data-name="Layer 1" xmlns="http://www.w3.org/2000/svg" viewBox="0 0 1000 1000">
  <path d="m647.68,550.08l-4.5-9.72c.02-.37.04-.74.04-1.11,0-11.02-10.99-21.17-29.48-29.3v6.76c-1.8-.75-3.68-1.47-5.64-2.17v-3.15c-26.42-9.93-65.75-16.24-109.69-16.24-38.39,0-73.26,4.81-99.08,12.65v10.98h0v-13.29c-26.45,8.76-42.85,20.94-42.85,34.4,0,2.12.41,4.21,1.2,6.26l-2.69,5s-2.16,2.92,1.64,9.08c3.35,5.43,20.15,26.7,29.01,37.83,3.81,5.71,6.39,9.23,6.62,8.89.36-.54-2.37-11.26-9.93-23.49-3.53-6.57-7.74-15.27-10.27-21.7,7.06,4.66,47.24,36.96,131.86,36.87,86.48-.09,126.23-38.83,130.45-42.67-1.47,6.18-6.51,18.67-10.53,27.46-6.6,12.57-8.99,23.51-8.68,24.05.2.34,2.45-3.28,5.77-9.15,7.73-11.48,22.37-33.4,25.3-38.99,3.32-6.33,1.45-9.26,1.45-9.26" fill="#a52b00"/>
  <path d="m675.47,550.03l-29.83-22.72c-.28-1.01-.56-2.02-.85-3.02l9.8-14.67c1-1.49,1.2-3.43.55-5.13-.65-1.69-2.07-2.91-3.76-3.21l-16.57-2.91c-.64-1.35-1.32-2.69-1.99-4.01l6.96-16.48c.72-1.68.57-3.63-.38-5.15-.95-1.53-2.55-2.42-4.26-2.35l-16.82.63c-.87-1.17-1.75-2.33-2.66-3.47l3.86-17.66c.39-1.79-.1-3.67-1.31-4.97-1.2-1.3-2.95-1.84-4.61-1.41l-16.38,4.16c-1.06-.97-2.14-1.93-3.23-2.86l.59-18.13c.06-1.84-.76-3.58-2.19-4.6-1.42-1.02-3.22-1.18-4.78-.42l-15.28,7.51c-1.23-.73-2.47-1.45-3.72-2.15l-2.7-17.86c-.27-1.81-1.4-3.35-2.98-4.05-1.57-.71-3.37-.48-4.76.6l-13.62,10.57c-1.34-.46-2.69-.9-4.05-1.32l-5.87-16.94c-.6-1.73-1.97-3-3.65-3.35-1.67-.35-3.39.25-4.55,1.59l-11.47,13.26c-1.39-.16-2.77-.31-4.16-.44l-8.85-15.42c-.9-1.56-2.48-2.51-4.19-2.51s-3.29.95-4.18,2.51l-8.86,15.42c-1.39.12-2.79.28-4.17.44l-11.47-13.26c-1.16-1.34-2.89-1.94-4.56-1.59-1.68.36-3.06,1.63-3.65,3.35l-5.88,16.94c-1.36.42-2.71.87-4.05,1.32l-13.62-10.57c-1.38-1.08-3.19-1.31-4.76-.6-1.57.7-2.7,2.24-2.98,4.05l-2.7,17.86c-1.25.7-2.49,1.42-3.72,2.15l-15.28-7.51c-1.55-.76-3.36-.61-4.78.42-1.42,1.02-2.25,2.76-2.18,4.6l.59,18.13c-1.09.94-2.16,1.89-3.23,2.86l-16.38-4.16c-1.66-.42-3.41.12-4.61,1.41-1.21,1.3-1.7,3.18-1.31,4.97l3.86,17.66c-.89,1.14-1.78,2.3-2.65,3.47l-16.82-.63c-1.7-.05-3.32.82-4.26,2.35-.95,1.52-1.09,3.47-.39,5.15l6.97,16.48c-.68,1.32-1.35,2.66-2,4.01l-16.57,2.91c-1.68.29-3.1,1.51-3.76,3.21-.65,1.7-.44,3.64.55,5.13l9.8,14.67c-.08.26-.15.52-.22.78l-27.71,30.43s-4.25,3.44,1.94,11.53c5.45,7.13,33.44,35.41,48.23,50.22,6.24,7.52,10.52,12.18,10.97,11.77.71-.64-3-14.32-15.3-30.38-9.48-14.4-21.78-36.56-18.9-39.11,0,0,3.28-4.31,9.87-7.41.24.2-.25-.2,0,0,0,0,139.8,89.24,267.86,1.12,14.72-2.73,23.64,5.42,23.64,5.42,3.07,1.84-4.89,24.62-11.43,39.7-8.9,17.12-10.21,30.48-9.45,30.95.48.29,3.72-4.8,8.34-12.91,11.4-16.42,32.95-47.73,36.9-55.34,4.47-8.62,0-11.04,0-11.04" fill="#f74c00"/>
  <g>
    <path d="m70.56,477.09c32.26-2.34,45.82-21.04,45.82-62.18v-59.38c0-37.87,2.81-59.84,24.78-73.4,13.56-7.95,32.73-10.29,58.91-10.29l.47,40.21c-29.92,2.34-35.06,16.36-35.06,51.43v59.84c0,43.01-7.95,64.52-49.09,75.74-1.4,0-1.87.47-1.87.94s.47.94,1.87.94c41.14,11.22,49.09,32.73,49.09,75.74v59.84c0,35.06,5.14,49.09,35.06,51.43l-.47,40.21c-26.18,0-45.35-2.34-58.91-10.29-22.44-13.56-24.78-35.06-24.78-73.4v-59.38c0-41.14-13.56-59.38-45.82-62.65v-45.35Z"/>
    <path d="m929.44,522.44c-32.26,3.27-45.82,21.51-45.82,62.65v59.38c0,38.34-2.34,59.84-24.78,73.4-13.56,7.95-32.73,10.29-58.91,10.29l-.47-40.21c29.92-2.34,35.06-16.36,35.06-51.43v-59.84c0-43.01,7.95-64.52,49.09-75.74,1.4,0,1.87-.47,1.87-.94s-.47-.94-1.87-.94c-41.14-11.22-49.09-32.73-49.09-75.74v-59.84c0-35.06-5.14-49.09-35.06-51.43l.47-40.21c26.18,0,45.35,2.34,58.91,10.29,21.97,13.56,24.78,35.53,24.78,73.4v59.38c0,41.14,13.56,59.84,45.82,62.18v45.35Z"/>
  </g>
  <g id="Layer-1">
    <path d="m523.12,486.9s17.21-18.84,34.41,0c0,0,13.52,25.12,0,37.68,0,0-22.12,17.59-34.41,0,0,0-14.75-13.82,0-37.68"/>
    <path d="m543.05,493.88c0,7.34-4.32,13.28-9.66,13.28s-9.66-5.95-9.66-13.28,4.32-13.29,9.66-13.29,9.66,5.95,9.66,13.29" fill="#fff"/>
    <path d="m446.33,481.75s29.51-13.07,37.57,16.1c0,0,8.44,34-24.24,35.92,0,0-41.67-8.03-13.33-52.02"/>
    <path d="m461.15,494.37c0,7.57-4.46,13.7-9.96,13.7s-9.96-6.14-9.96-13.7,4.46-13.7,9.96-13.7,9.96,6.13,9.96,13.7" fill="#fff"/>
    <path d="m484.14,545.66l37.64-3.02s-1.28,6.06-6.19,10.61c0,0-12.95,14.19-27.8-1.18,0,0-2.43-2.62-3.65-6.41"/>
  </g>
  <g>
    <path d="m636.79,520.27s22.78-1.06,52.7-31.47l4.24-9.41s-46.44-46.2,25.75-78.09c0,0-6.32,10.33-4.47,50.23,0,0,21.77-7.56,28.15-42.81,0,0,31.75,41.86-34.48,81.12,0,0-31.07,49.81-74.88,45.04l2.99-14.62Z" fill="#f74c00"/>
    <path d="m359.18,519.37c-.29,0-.57.02-.85.04-11.24-2.56-42.82-10.79-51.17-24.14,0,0,42.5-48.35-23.93-79.25l7.73,53.49s-20.48-13.69-24.9-43.41c0,0-49.87,36.19,22.01,70.88,0,0,6.52,24.5,69.11,44.04l.05-.19c.63.12,1.28.19,1.94.19,5.91,0,10.71-4.85,10.71-10.83s-4.8-10.82-10.71-10.82" fill="#f74c00"/>
  </g>
</svg>
